<?xml version="1.0" encoding="UTF-8"?>
<svg xmlns="http://www.w3.org/2000/svg" version="1.1" viewBox="0 0 494.06 147.98">
  <!-- Generator: Adobe Illustrator 29.8.3, SVG Export Plug-In . SVG Version: 2.1.1 Build 3)  -->
  <defs>
    <style>
      .st0 {
        fill: #fff;
      }

      .st1 {
        display: none;
      }
    </style>
  </defs>
  <g id="Layer_1" class="st1">
    <g>
      <path d="M339.63,26.44c2.55.75,4.73-1.05,7.12-1.67.3.03,1.59,1.31,1.84,1.66,2.53,3.4,5.83,11.69,7.87,15.94.74,1.54,3.27,8.17,4.08,8.76.35.26.81.43,1.25.38l10.81-4.27,1.17-1.12c.48-6.07.05-13.12,2.1-18.95,1-2.84,8.09-4.75,10.96-5.11,4.85-.61,3,4.33,3.2,7.84.06,1.09.48,2.1.5,3.17.04,3.04-1.14,12.07.24,13.94.57.77,1.95.82,2.06,2.11.12,1.46-1.67,2.54-2.21,3.75-1.27,2.82-.54,16.25-.13,20.05.07.69.05,1.14.71,1.57,1.82-.01,14.38-15.88,16.5-18.3,4.39-5.03,9.11-9.87,13.44-14.93,3.24-3.78,7.01-10.09,10.66-13.17,3.16-2.66,4.23-.12,6.22.08,1.1.11,2.72-1.24,4.42-.81,1.37,2,3.59,5.52,3.39,7.96-.1,1.21-2.03,2.93-.78,3.73,1.17.74,7.49.88,9.3,1.24,5.39,1.08,10.78,4.07,16.29,5.25,4.7,1,15.03,1.22,18.61,2.93,3.03,1.45,1.59,2.38,1.85,4.55.18,1.49,1.15,1.98.51,4.11-.13.43-4.32,7.41-4.63,7.74-1.45,1.58-6.06.69-8.17.42-14.01-1.79-26.18-8.36-39.61-10.79-2.45-.44-5.36-1.52-6.96,1.01,0,1.06,6.22,2.19,7.43,2.64,10.56,3.93,22.34,11.77,33.05,16.43,5.02,2.19,10.33,3.64,15.42,5.66,1.83,1.86.82,3.96.89,5.93.1,3,1.67,4.84-1.63,7.02-.85.56-5.46,2.81-6.29,2.79-2.55-.06-10.82-4.11-14.14-5.13-4.58-1.41-7.14-1.39-11.83-3.75-7.44-3.75-14.71-8.04-22.29-11.61-2.12-1-9.53-3.19-10.14-4.98-.22-.67-.34-3.56-.59-3.76-.63-.11-1.22-.06-1.8.22-1.34.64-6.09,7.32-7.57,8.92-6.24,6.73-15.11,13.99-20.4,21.27-1.94,2.67-2.66,9.02-5.83,9.74-2.75.62-5.53-1.74-4.5,2.39,2.11,8.42,8.76,18.59,9.42,27.22.07.96.03,1.57-.27,2.49-.11.35-3.52,5.81-3.86,6.21-1.32,1.57-6.82.72-8.59-.14-4.39-2.13-6.19-12.01-7.91-16.36-3.09-7.84-6.83-15.65-9.86-23.56-3.31-8.63-5.58-17.96-9.32-26.39-.98-2.22-2.39-6.56-5.31-4.66-1.83,1.19-.98,3.87-1.2,5.67-.57,4.77-1.67,16.53-3.48,20.32-.41.86-4.28,4.91-5.21,5.78-4.57,4.29-7.86-1.39-9.16-5.54l2.2-21.86c-1.01-2.05-4.44-.51-5.48-1.86l-2.24-8.97c-.1,2.83-2.3,5.44-3.1,8.12-.84,2.82-1.21,11.05-3.64,12.49-1.62.96-4.87,1.56-6.75,1.3-3.76-.5-4.88-4.44-8.93-4.04-1.36,6.51.08,13.37,1.33,19.83-.18,1.77-1.77,2.3-2.48,3.51-.95,1.63-1.76,6.09-3.78,6.27-1.8.1-2.34-2-3.24-2.66-1.33-.98-3.24-.69-4.73-2.02-1.28-1.15-2.51-4.15-3.87-5.75-3.49-4.1-9.08-7.66-13.06-11.67-4.84-4.88-7.89-11.07-12.84-15.56-.54-.49-3.75-3.26-4-3.33-2.12-.63-7.04.05-9.31.59-8.63,2.03-17.96,6.49-26.59,9.15-2.66.82-9.12,3.05-11.43,3.24-3.55.29-3.44-3.25-4.37-5.75-.39-1.06-1.4-1.71-1.59-3.01-.29-1.97.42-4.06,2.04-5.23,7.61-5.49,22.99-6.68,32.32-9.83.68-.23,4.1-1.43,4.29-1.56,2.13-1.51-1.39-3.38-2.18-4.21-1.18-1.25-1.29-2.93-3.32-2.99-7.36-.21-15.49,1.34-22.84,1.68-3.27.15-10.72.95-11.61-3.09-.16-.73-.63-6.5-.55-7.18.37-3.11,6.11-5.5,8.94-5.76,4.56-.41,6.95-.48,11.56-1.27,11.49-1.97,23.14-5,34.85-3.92l.59.46c.25,1.71,1.71,3.29,1.83,4.96.19,2.6-2.2,4.85-1.17,7.08l27.26,27.46c-.04-1.12.12-2.28-.03-3.39-1.39-9.89-11.23-13.33-13.92-21.34-1.12-3.33.79-2.84,1.91-4.22.59-.73.33-1.91,1.31-2.59,1.08-.74,2.46-.28,3.53-.6,2.19-.65,4.67-2.05,7-2.62l2.04-9.86c2.97-.1,12.03-4.48,14-1.15.25.43,1.09,8.6,1.15,9.83.31,6.1-.57,12.14-.38,18.22.19.83,4.71,4.86,5.61,5.38.68.39,1.49.65,2.26.46.56-.14,4.22-9.17,4.73-10.47,1.35-3.44,2.22-7.16,3.6-10.6,5.32-13.32,11.41-26.33,17.4-39.36,4.34-2.5,4.36,2.87,5.26,3.46,1.25.81,4.95-.55,6.03,1.76.64,1.37.6,7.89.37,9.62-.39,2.85-3.06,5.98-3.63,8.96ZM334.13,6.77c-.91,0-1.7.48-2.23,1.2-.99,1.36-3.52,6.97-4.4,8.87-7.11,15.37-12.06,32.03-19.25,47.13-.79,1.66-.57,4.77-3.61,3.14-1.84-.99-4.77-3.97-6.48-5.43-.97-.83-2.3-.8-2.78-2.26-.85-3.73.53-7.59.71-11.24.13-2.55-.04-16.24-1.81-17.4-1.18-.77-8.46,1.18-9.22,2.26-1.15,1.9-.89,10.22-2.25,11.02-1.46.86-3.51-.46-5.16-.15-.6.11-5.31,2.32-5.61,2.67s-1.44,2.62-1.44,2.96c0,2.35,8.95,10.72,10.82,13.28,3.32,4.54,2.16,12.39,3.11,17.78-.41,1.05-1.64,1.6-2.64.97-2.82-3.56-5.47-7.35-8.47-10.77-4.66-5.29-10.9-11.61-16.04-16.48-1.71-1.62-7.82-7.03-9.6-7.8-3.45-1.48-13.65,3.13-9.89,8.5,1.85,2.63,6.89,6.87,9.42,9.36,4.35,4.3,9.53,8.34,13.68,12.88s6.88,10.11,11.49,14.61c3.84,3.75,8.72,6.58,12.18,10.72,1.11,1.33,2.89,4.83,3.67,5.49,1.61,1.37,4.76.31,5.72,2.98l3.88-6.19c-1.43-6.71-2.47-14.18-1.84-21.05.54-5.81,3.42-2.18,5.66-1.03,1.35.7,2.83,1.04,4.15,1.81,1.84,1.07,1.6,2.7,4.62,2.19.46-.08,3.23-1.26,3.5-1.55.63-.67,2.29-10.04,2.94-12.17,3.34-10.92,9.37-20.93,14.21-31.11,1.81-3.79,2.56-8.15,4.01-12.01,2.1-5.55,6-11.53,5.87-17.48-.12-5.56-6.17-.88-6.9-5.74ZM378.72,27.48c-.41.41-1.25,2.73-1.39,3.41-.42,2-1.29,10.92-.82,12.5.15.5.86,1.58,1.38,1.64.44.05,8.27-1.97,8.65-2.2,1.75-1.01,1.36-9.35,1.24-11.61-.05-.92-.51-5.92-.68-6.18-.81-1.18-7.42,1.47-8.38,2.43ZM379.18,142.08c.61.51,3.38,1.1,4.24,1.09,2.93-.04,5.4-4.42,5.26-7.12-.29-5.87-7.47-20.86-9.85-27.25-3.27-8.79-6.97-17.66-10.17-26.45-1.13-3.1-.43-5.3-3.72-7.73.39-2.68-2.64-7.32-1.05-9.55.61-.85,11.51-3.77,13.69-4.63s8.06-3.3,9.2-5c.31-.46,2.21-5.36,2.12-5.71-.05-.2-1.68-3.48-1.82-3.62-.66-.68-1.44-.46-2.24-.4-6.27.46-15.21,5.72-21.61,7.74-1.22.39-2.79,1.21-4.04.84s-4.14-8.41-4.97-10.16c-2.4-5.02-4.97-9.99-7.46-14.97-1.95-2.2-5,.93-7.49.79l-1.36,2.79-3.53,28.51c-.74,2.46-3.77,1.81-4.84,2.94-.68.72-.41,2.12-1.15,2.97s-1.97.69-2.52,1.14c-1.12.92-.07,4.66.42,6,1.29,1.63,5.47-.71,6,2.27-.39,3.63-.58,7.28-.96,10.91-.34,3.18-2.01,9.24-1.22,12.29.06.22,1.78,3.85,1.94,4.01,2.02,2.07,3.75-1.41,4.81-2.55,2.52-2.71,2.73-2.26,3.64-6.44l2.77-21.49c1.08-2.65,4.55-1.85,6.69-3.4.4-.04.64.2.93.42.7.53,4.6,10.87,5.26,12.6,4.75,12.56,9,25.42,13.87,37.86,2.04,5.21,3.95,10.75,6.06,15.91.4.99,2.47,4.86,3.09,5.37ZM441.32,30.64c-1.39-.57-3.07.45-4.26.37-1.33-.09-2.88-1.96-4.41-.25-5.96,7.75-12.62,14.83-19,22.22-7.09,8.22-13.68,17.2-21.52,24.74-2.11,2.02-3.27,2.76-3.89-.73-1.01-5.72.14-11.77-.91-17.4-1.05-1.46-2.91.57-4.06,1.05-1.61.66-5.78,1.81-6.54,3.08-1.02,1.7-.01,2.62.02,4.15.15,6.31.67,12.47.94,18.73.21,5.07-.93,7.78,1.03,13.16,1.06,2.9,2.28,4.24,5.6,4.5,3.61.29,3.29-4.1,4.72-6.75,3.4-6.28,17.22-18.21,22.79-24.38,2.09-2.32,6.76-7.01,8.26-9.14.9-1.27.88-2.65,1.78-3.71,1.02-1.19,4-1.99,5.53-3.17,1.13-.88,6.02-6.46,6.19-7.59.39-2.58-1.69-3.7.99-6.75,1.88-2.15,3.98-1.9,5.68-3.02.51-.34,2.29-2.8,2.54-3.43.96-2.47-.73-3.52-1.49-5.66ZM234.1,51.5c.64-.54.33-2.44.99-3.36.16-.23,4.21-3.23,4.48-3.3.52-.15,7.31-1.41,7.7-1.41,1.3,0,2.88,1.53,4.36.64,1.56-.94,1.09-6.2-1.16-6.63-1.87-.36-8.4-.2-10.48.04-8.86,1-18.79,4.47-27.6,5.39-3.61.38-11.73-1.22-12.08,4.45-.07,1.08.46,5.13,1.16,5.63,2.29,1.63,21.6-.49,25.64-.88,1.62-.16,5.89.36,6.99-.57ZM440.35,42.11c-1.24.23-4,1.7-4.38,2.97l.43,5.79c.29.92,3.97,1.07,5.07,1.34,9.4,2.34,18.28,6,27.39,8.35,2.65.68,14.29,3.24,16.06,2.26.44-.24,3.81-5.45,3.95-6.15.26-1.22-.37-5.37-1.52-5.88-4.78-1.18-10.2-1.15-14.93-2.02-10.34-1.92-21.11-8.67-32.08-6.65ZM333.67,45.2l-1.76.08c-.59,1.87-2.07,3.4-2.91,5.1-1.81,3.68-4.8,10.73-6.03,14.58-.23.73-.39,1.44-.31,2.2,1.9,0,.96-1.96,2.04-3.22,1.37-1.59,4.85-2.01,6.37-3.25,2.46-2,1.63-12.08,2.58-15.49ZM486.71,90.9c-.37-3.46,1.65-7.3-2.12-8.97-4.41-1.95-9.77-3.23-14.43-5.28-10.08-4.42-21.25-11.78-31.15-15.57-2.77-1.06-6.37-2.07-9.32-1.71-.63.08-5.14,1.9-5.3,2.14-.82,1.25-.11,5.01.46,6.37.96,2.29,9.13,4.79,11.8,6.07,7.23,3.48,14.49,8.03,21.6,11.38,4.29,2.02,7.96,2.09,12.22,3.36,3.2.96,8.96,4.66,11.82,3.97,1.15-.28,2.95-1.65,4.41-1.77ZM248.87,69.92c-3.26-1.05-5.3-6.73-8.88-6.39s-9.97,3.79-13.92,4.43c-5.52,1.52-13.1,2.55-18.25,4.66-.46.19-5.04,2.78-5.24,3.01-1.33,1.44,2.16,6.16,1.9,8.41,1.2.75,11.13-2.34,13.15-2.99,8.17-2.66,16.18-6.06,24.47-8.52.87-.26,7.88-1.05,6.78-2.6ZM373.5,64.93c-5.97.33-8.57.97-6.14,7.28.47,1.22,1.66,1.89,2.31,3.19,1.73,3.47,1.44,9.46,5.26,11.44l-1.43-21.91Z"/>
      <path d="M190.47,98.56c-5.12,5.42-11.24,8.06-18.56,4.48-1.33-.65-8.48-5.98-9.41-7.08-3.85-4.58-3.63-10.95-6.45-15.97-1.14-.02-.58,6-.7,7.08-.38,3.67-1.61,7.71-1.82,11.45-.52,9.15,4.76,26.83-10.79,24.94-3.23-.39-5.86-4.39-8.24-6.42-4.52-3.87-9.47-7.66-13.76-11.88-2.82-2.77-9.99-9.9-11.89-12.84-.46-.71-.74-1.41-.71-2.27-.52-.47-1.93,1.18-2.22,1.67-1.81,3.02-5.03,11.89-7.16,13.9-1.16,1.1-3.94,2.13-5.43,3.27-4.09,3.12-7.86,7.46-13.04,8.94-4.16,1.19-17.98,1.92-21.42-.33-2.49-1.63-5.33-8.62-4.71-11.57.41-1.91,4.5-9.04,2.89-10.4-1.32-1.11-11.74-.79-14-.91-.98.98,6.84,18.38,6.39,22.6-.15,1.43-2.37,6.78-3.64,7.36-.47.21-6.78.3-7.46.15-1.89-.41-3.7-3.46-4.53-5.09-2.65-5.17-4.04-11.65-6.32-17.03-.45-1.07-2.77-5.94-3.5-6.06-.55-.1-1.42.44-2.22.38-.89-.07-3.73-.45-4.37-.72-1.74-.73-1.08-2.61-1.62-3.87-.59-1.37-3.19-1.71-2.43-4.25.68-2.29,6.36-5.47,6.7-6.6.71-2.31-.59-8.64-3.02-9.63-2.98-1.21-8.39.31-10.69-1.68-.25-.22-3.18-5.36-3.32-5.84-.45-1.54-.33-3.07-.33-4.65,3.52-1.7,5.44-4.87,9.54-5.44,1.23-2.19.06-4.92.77-7.24.12-.4,3.79-4.3,4.36-4.8,2.06-1.83,7.05-2.7,8.68.08.63,1.96,3.96,11.9,5.41,12.44l35.33,2.02c1.01,2.98,3.18,6.82,2.2,9.98-.85,2.71-10.3,8.39-10.33,9.35,2.18,1.35,6.76,1.81,8.71,0,5.08-6.66,9.78-15.14,15.34-21.29,2.28-2.53,5.39-3.52,6.64-4.81.88-.91.97-3.24,1.84-4.57.93-1.43,8.76-6.1,10.31-6.13,1.35-.02,5.6,1.75,6.51,2.84,2.52,3,5.34,12.59,6.93,16.65.2.5,1,2.75,1.69,2.43l11.24-17.47c.75-.9,4.34-4.14,5.23-4.52,1.25-.54,2.7-.3,3.62-.85.85-.51,2.71-5.71,5.3-1.11,1.03,1.82,2.1,7.88,1.81,9.88-.19,1.31-6.44,12.28-7.63,14.38-1.44,2.56-6.85,9.95-6.97,12.27-.03.57,0,.95.7.69,1-.39,3.58-2.54,4.97-3.27,5.55-2.92,11.48-5.17,17.15-7.81,1.12-1.26-.28-5.33-.34-6.99-.12-3.09-.38-8.91.68-11.67.6-1.56,3.1-2.52,4.57-3.67s2.43-3.38,4.55-3.19c1.7.16,9.68,5.74,8.81,8.25-2.64,2.64-1.44,6.62-1.89,10.05l.91.74c1.35-.13,2.73-.79,4.09-.71,3.76.23,2.24,2.66,2.62,5.2s1.92,3.25-.12,5.93c-1.36,1.79-1.28,2.37-2.19,3.74-.5.75-1.77,1.07-2.08,1.58-1.96,3.2,5.78,11.81,8.18,11.37,1.81-.33,1.31-7.59,1.21-9.31-.5-8.34-4.1-15.89-4.99-23.39-.45-3.76.3-7.93-.48-11.79.21-2.01,1.18-2.71,2.87-3.57.94-.47,6.14-2.4,7.07-2.58,1.57-.32,3.67.81,4.71,1.97,3.82,4.28,2.91,17.21,3.7,22.85.39,2.79,1.93,5.79,2.51,8.48,2.75,12.73,3.37,22.02-5.94,31.88ZM185.05,36.13c-.57.15-1.07.9-1.7,1.09-1.9.58-4.58.3-5.54,2.72.79,4.04.34,8.17,1.05,12.24,1.75,10.04,4.94,17.62,4.97,28.49s-9.23,5.83-12.78-.09c-1.27-2.12-1.7-4.52-3.11-6.51-.72-.16-7.84,2.86-8.22,3.61-.99,1.94,1.18,9.02,2.06,11.23,2.42,6.08,11.53,12.97,18.14,13.04,5.26.06,13.07-8.75,14.52-13.41.96-3.09.75-12.66.35-16.11-.53-4.53-2.48-8.83-3.15-13.33-.75-5.05-.17-17.64-3.07-21.18-.68-.83-2.44-2.07-3.52-1.79ZM140.23,39.71c-1.68-.37-2.27,1.7-3.65,2.11-1.2.35-1.99-.38-3.08.05-3.57,1.39-15.02,20.6-17.27,24.9-1.99,3.79-6.87,13.44-7.53,17.22-.24,1.38,1.61,5.22,2.45,6.5,4.15,6.33,23.1,23.81,29.59,28.58,4.04,2.97,9.69,2.49,10.46-3.2s-.77-11.98-.43-17.37c.14-2.3,1.09-4.65,1.33-6.9.43-3.98.37-7.98.86-11.95.52-1.29,3.55-3.12,4.85-3.86,3.41-1.94,10.05-3.68,12.67-5.65,1.43-1.08,1.29-3.34,3-4.35-.43-3.26,1.22-7.33-3.58-6.29-8.58,1.85-26.89,9.83-34.72,14.3-1.14.65-4.86,3.08-5.05,4.14-.24,1.34,1.39,6.07,2.44,6.95,2.16,1.8,7.29.07,7.92,2.38.43,1.57,0,8.05-.36,9.78-.12.56-.39,1.09-.81,1.49h-1.84c-2.21-2.62-5.38-4.12-7.83-6.4-1.48-1.37-6.95-7.29-7.7-8.77-.39-.79-.6-1.3-.56-2.22.1-2.21,5.36-8.68,6.82-11.08,2.05-3.36,12.93-21.39,12.93-23.7,0-.79-.65-6.45-.93-6.64ZM166.72,44.84c-4.22-2.99-4.77-4.9-9.49-1.21-2.71,2.12-2.99,3.41-3.23,6.84-.14,2.03.17,10.43,1.82,11.47l9.22-3.3c1.13-1.59.55-7.89.9-9.98.18-1.09,1.58-2.3.79-3.82ZM72.17,95.54h-10.54c-.42,0-1.04.62-1.29,1.04-1,1.7-3.67,9.71-3.54,11.53.22,3.1,3.07,7.36,6.31,7.91,3.65.61,13.84.35,17.33-.78,4.36-1.41,6.83-4.75,10.07-7.33,1.78-1.42,5.75-3.28,6.85-4.61,4.2-5.08,8.46-19.05,11.03-25.6,2.9-7.39,6.14-9.64,4.14-18.34-.58-2.51-4.45-12.27-5.83-14.31-.91-1.36-4.56-3.19-6.1-3.04-.38.04-6.26,3.46-6.69,3.86-2.01,1.91-1,4.49-1.93,5.62-.5.61-3.93,1.61-4.88,2.22l-16.99,22.38c3.57,2.12,9.12.2,13.28.45,4.02-3.7,5.91-10.51,10.12-13.69,6.8-5.15,7.11.51,6.84,6.37-.54,11.95-7.76,22.51-15.59,31.11-3.56,3.91-7.24,6.2-12.71,4.25-.67-1.74-.75-3.59-.37-5.41.29-1.34,1.87-2.69.48-3.63ZM50.4,79.52c-1.15-1.24,6.72-5.45,7.75-6.21,1.22-.9,8.2-6.36,8.53-7.07.77-1.69-1.52-4.06-1.24-6.08l-.67-.7-34.69-1.97c-1.75-.58-5.3-11.03-6.04-13.19-.75-1.17-2.85-1.12-4.14-.95-1.07.14-.79,1.2-1.58,2.09-1.81,2.05-3.67,2.15-3.67,5.49,0,1.54,1.18,3.46.04,5.08-.85,1.02-4.31,1.22-5.53,1.8-.44.21-3.47,3.31-3.6,3.74-.38,1.26,1.58,5.46,2.46,6.05,2.15,1.45,11.32.79,12.15,2.17.92,3.39,4.55,10.46,2.05,13.45-.78.94-5.67,3.68-5.67,4.77,1.85,1.93,2.26,3.55,2.73,6.12,2.01.7,5.5-1.3,7.05.06.36.32,3.67,7.6,4.12,8.7,1.48,3.63,5.32,18.11,8.81,19.12.8.23,5.09.26,5.65-.12,1.25-2.52,2.4-5.18,1.61-8.05l-7.05-19.53c-.12-.68.29-1.86.84-2.19,2.23-1.33,13.94.6,17.17.71,5.79.2,16.21.72,21.59,0,3.37-.45,3.47-4.9,2.95-7.57-.24-1.22-2.13-2.36-1.43-4.52l-.69-.69-29.5-.53ZM97.59,63.98c-.5-.1-.99-.04-1.47.09-3.42.96-8.72,12.84-12.01,15.46-1.07,2.6.65,2.72,1.03,3.96.43,1.4-.36,7-.92,8.51-1.45,3.89-4.05,2.44-6.81,3.27-3.92,1.19-5.08,10.99,2.28,6.39,3-1.87,13.25-15.54,14.89-19,2.44-5.15,3.96-13.12,3.01-18.69ZM127.88,85.91c2.74.33-.43-6.21-1.22-6.79-.32-.24-1.29-.69-1.54-.51-1.71,3.68,1.17,4.67,2.76,7.31ZM137.47,93.24c2.36-6.41-2.83-3.87-6.86-5.47.3,1.67,5.63,6.31,6.86,5.47Z"/>
      <path d="M415.56,88.81c4.4.8,9.25,1.78,13.69,2.14,5.72.47,12.12.06,17.87.47,8.34.59,16.49,1.27,24.07,4.34,1.4.57,4.57.61,5.27,2.06,1.2,2.5.18,11.09-1.23,13.41-1.49,2.44-5.57,1.29-7.81.65-3.96-1.12-7.87-3.14-12.08-3.96-11.3-2.2-23.34-1.62-34.29-3.29-2.99-.46-12.06-4.32-12.58-7.6-.23-1.45,4.65-8.45,7.1-8.22ZM473.89,99.24c-3.19.21-5.64-2.36-8.17-3.05-10.58-2.91-28.63-1.99-40.14-2.95-2.61-.22-9.35-2.06-11.24-1.14-1.08.53-2.63,3.57-2.06,4.79s6.92,4.66,8.36,4.94c6.43,1.28,13.94.81,20.52,1.48,5.88.6,14.11,1.72,19.79,3.13,2.67.66,8.53,3.54,10.55,3.61,3.71.14,2.16-8.42,2.4-10.82Z"/>
      <path d="M243.74,91.09c3.39-.09,7.53-.3,10.86.33,3.09.58,1.55,6.15,2.86,8.38-.05,1.15-2.06,4.9-2.87,5.77-2.84,3.03-20.97,2.05-25.67,2.29-7.43.38-16.48,2.22-23.82,1.39-8.57-.96-6.18-14.92.2-16.27,2.12-.45,6.96-.58,9.4-.68,9.67-.38,19.4-.96,29.03-1.22ZM204.08,105.93c1.15.96,8.23.66,10.2.61,10.02-.25,21.66-.63,31.6-1.4,7.8-.61,10.56-2.77,7.59-10.77-6.56-1.9-13.29.03-19.94.27-8.44.3-18.84-.6-27.06.9-.41.08-3.3,2.33-3.47,2.6-1.4,2.23-.96,6.1,1.07,7.78Z"/>
      <path class="st0" d="M334.13,6.77c.74,4.86,6.78.18,6.9,5.74.13,5.95-3.77,11.93-5.87,17.48-1.46,3.86-2.21,8.21-4.01,12.01-4.85,10.18-10.87,20.19-14.21,31.11-.65,2.13-2.31,11.49-2.94,12.17-.27.29-3.04,1.47-3.5,1.55-3.02.51-2.79-1.12-4.62-2.19-1.32-.77-2.8-1.11-4.15-1.81-2.24-1.15-5.12-4.78-5.66,1.03-.63,6.87.41,14.34,1.84,21.05l-3.88,6.19c-.96-2.67-4.11-1.61-5.72-2.98-.78-.66-2.56-4.16-3.67-5.49-3.46-4.14-8.34-6.97-12.18-10.72-4.61-4.5-7.48-10.23-11.49-14.61s-9.33-8.58-13.68-12.88c-2.52-2.49-7.57-6.73-9.42-9.36-3.76-5.37,6.44-9.98,9.89-8.5,1.79.77,7.89,6.18,9.6,7.8,5.13,4.87,11.38,11.18,16.04,16.48,3.01,3.41,5.65,7.2,8.47,10.77,1,.63,2.23.08,2.64-.97-.95-5.39.21-13.24-3.11-17.78-1.87-2.56-10.82-10.93-10.82-13.28,0-.34,1.15-2.62,1.44-2.96s5-2.56,5.61-2.67c1.65-.31,3.7,1.01,5.16.15,1.36-.8,1.1-9.12,2.25-11.02.77-1.09,8.04-3.04,9.22-2.26,1.77,1.16,1.94,14.85,1.81,17.4-.18,3.65-1.56,7.51-.71,11.24.48,1.45,1.81,1.43,2.78,2.26,1.71,1.46,4.64,4.45,6.48,5.43,3.04,1.63,2.82-1.48,3.61-3.14,7.2-15.1,12.15-31.76,19.25-47.13.88-1.91,3.41-7.51,4.4-8.87.53-.72,1.32-1.2,2.23-1.2Z"/>
      <path class="st0" d="M379.18,142.08c-.63-.52-2.69-4.39-3.09-5.37-2.12-5.16-4.02-10.7-6.06-15.91-4.87-12.44-9.11-25.31-13.87-37.86-.66-1.73-4.56-12.07-5.26-12.6-.29-.22-.53-.46-.93-.42-2.14,1.54-5.61.75-6.69,3.4l-2.77,21.49c-.91,4.17-1.11,3.73-3.64,6.44-1.06,1.14-2.79,4.61-4.81,2.55-.16-.16-1.88-3.79-1.94-4.01-.8-3.05.88-9.11,1.22-12.29.39-3.63.57-7.28.96-10.91-.53-2.98-4.71-.63-6-2.27-.49-1.34-1.54-5.07-.42-6,.55-.45,1.8-.31,2.52-1.14s.46-2.26,1.15-2.97c1.08-1.13,4.1-.48,4.84-2.94l3.53-28.51,1.36-2.79c2.49.14,5.55-2.99,7.49-.79,2.5,4.98,5.07,9.94,7.46,14.97.83,1.75,3.76,9.8,4.97,10.16s2.81-.45,4.04-.84c6.4-2.02,15.34-7.28,21.61-7.74.8-.06,1.58-.28,2.24.4.14.15,1.78,3.43,1.82,3.62.08.35-1.81,5.25-2.12,5.71-1.15,1.7-7.08,4.16-9.2,5s-13.08,3.78-13.69,4.63c-1.6,2.22,1.43,6.87,1.05,9.55,3.29,2.43,2.59,4.63,3.72,7.73,3.2,8.79,6.9,17.66,10.17,26.45,2.38,6.39,9.56,21.38,9.85,27.25.13,2.7-2.33,7.08-5.26,7.12-.86.01-3.63-.58-4.24-1.09ZM345.39,51.62c-.97.22-3.08,9.17-.04,9.14,4.88-1.24,3.9-7.61.04-9.14Z"/>
      <path class="st0" d="M441.32,30.64c.75,2.14,2.45,3.2,1.49,5.66-.25.63-2.03,3.1-2.54,3.43-1.7,1.13-3.8.87-5.68,3.02-2.67,3.05-.6,4.17-.99,6.75-.17,1.13-5.06,6.71-6.19,7.59-1.53,1.19-4.51,1.98-5.53,3.17-.91,1.06-.88,2.44-1.78,3.71-1.5,2.13-6.17,6.81-8.26,9.14-5.56,6.18-19.39,18.11-22.79,24.38-1.44,2.65-1.11,7.04-4.72,6.75-3.32-.26-4.54-1.6-5.6-4.5-1.96-5.38-.81-8.1-1.03-13.16-.27-6.27-.79-12.43-.94-18.73-.04-1.53-1.05-2.45-.02-4.15.76-1.27,4.93-2.41,6.54-3.08,1.15-.47,3.01-2.51,4.06-1.05,1.05,5.63-.1,11.67.91,17.4.62,3.5,1.79,2.76,3.89.73,7.84-7.53,14.43-16.52,21.52-24.74,6.37-7.39,13.04-14.47,19-22.22,1.53-1.71,3.08.15,4.41.25,1.19.08,2.87-.94,4.26-.37Z"/>
      <path class="st0" d="M486.71,90.9c-1.46.13-3.26,1.5-4.41,1.77-2.86.69-8.63-3.01-11.82-3.97-4.26-1.28-7.93-1.34-12.22-3.36-7.12-3.35-14.37-7.9-21.6-11.38-2.67-1.28-10.84-3.78-11.8-6.07-.57-1.36-1.28-5.12-.46-6.37.16-.24,4.66-2.06,5.3-2.14,2.95-.37,6.55.65,9.32,1.71,9.9,3.79,21.07,11.15,31.15,15.57,4.65,2.04,10.01,3.33,14.43,5.28,3.78,1.67,1.75,5.51,2.12,8.97Z"/>
      <path class="st0" d="M440.35,42.11c10.97-2.02,21.74,4.73,32.08,6.65,4.73.88,10.15.84,14.93,2.02,1.14.51,1.77,4.66,1.52,5.88-.15.7-3.51,5.91-3.95,6.15-1.77.98-13.42-1.58-16.06-2.26-9.11-2.35-17.99-6.02-27.39-8.35-1.11-.28-4.78-.42-5.07-1.34l-.43-5.79c.38-1.27,3.14-2.74,4.38-2.97Z"/>
      <path class="st0" d="M234.1,51.5c-1.1.93-5.37.41-6.99.57-4.04.39-23.35,2.51-25.64.88-.7-.5-1.23-4.55-1.16-5.63.35-5.68,8.47-4.07,12.08-4.45,8.81-.93,18.74-4.4,27.6-5.39,2.08-.23,8.61-.39,10.48-.04,2.25.43,2.73,5.69,1.16,6.63-1.48.89-3.06-.64-4.36-.64-.39,0-7.18,1.26-7.7,1.41-.27.08-4.32,3.08-4.48,3.3-.67.92-.36,2.82-.99,3.36Z"/>
      <path class="st0" d="M248.87,69.92c1.1,1.55-5.91,2.34-6.78,2.6-8.29,2.46-16.29,5.86-24.47,8.52-2.02.66-11.95,3.74-13.15,2.99.26-2.25-3.23-6.97-1.9-8.41.2-.22,4.78-2.82,5.24-3.01,5.15-2.11,12.73-3.14,18.25-4.66,3.95-.64,10.35-4.09,13.92-4.43s5.62,5.34,8.88,6.39Z"/>
      <path class="st0" d="M378.72,27.48c.96-.96,7.57-3.62,8.38-2.43.18.26.63,5.26.68,6.18.12,2.26.51,10.6-1.24,11.61-.39.22-8.21,2.25-8.65,2.2-.52-.06-1.23-1.14-1.38-1.64-.47-1.58.4-10.5.82-12.5.14-.68.98-3.01,1.39-3.41Z"/>
      <path class="st0" d="M373.5,64.93l1.43,21.91c-3.82-1.98-3.53-7.98-5.26-11.44-.65-1.3-1.84-1.97-2.31-3.19-2.43-6.31.17-6.95,6.14-7.28Z"/>
      <path class="st0" d="M333.67,45.2c-.96,3.41-.13,13.49-2.58,15.49-1.52,1.24-5,1.66-6.37,3.25-1.08,1.26-.14,3.21-2.04,3.22-.08-.77.08-1.48.31-2.2,1.22-3.84,4.22-10.9,6.03-14.58.84-1.7,2.32-3.24,2.91-5.1l1.76-.08Z"/>
      <path class="st0" d="M50.4,79.52l29.5.53.69.69c-.7,2.16,1.19,3.3,1.43,4.52.53,2.67.42,7.12-2.95,7.57-5.38.71-15.8.19-21.59,0-3.23-.11-14.95-2.04-17.17-.71-.55.33-.96,1.51-.84,2.19l7.05,19.53c.79,2.87-.36,5.54-1.61,8.05-.56.38-4.85.35-5.65.12-3.49-1.01-7.32-15.49-8.81-19.12-.45-1.1-3.76-8.38-4.12-8.7-1.55-1.36-5.04.64-7.05-.06-.47-2.57-.88-4.19-2.73-6.12,0-1.09,4.89-3.83,5.67-4.77,2.5-2.99-1.14-10.06-2.05-13.45-.83-1.37-10-.71-12.15-2.17-.88-.59-2.85-4.79-2.46-6.05.13-.43,3.16-3.53,3.6-3.74,1.22-.59,4.68-.78,5.53-1.8,1.14-1.62-.04-3.53-.04-5.08,0-3.34,1.86-3.44,3.67-5.49.79-.89.51-1.96,1.58-2.09,1.29-.17,3.39-.22,4.14.95.73,2.16,4.29,12.61,6.04,13.19l34.69,1.97.67.7c-.29,2.02,2.01,4.39,1.24,6.08-.32.7-7.31,6.17-8.53,7.07-1.04.76-8.91,4.97-7.75,6.21ZM41.59,67.26c-1.98.23-9.18,2.18-9.53,4.27-.9,5.33,5.89,2.2,8.2.84s6.99-5.78,1.32-5.11Z"/>
      <path class="st0" d="M140.23,39.71c.28.19.93,5.85.93,6.64,0,2.31-10.88,20.34-12.93,23.7-1.46,2.4-6.72,8.87-6.82,11.08-.04.92.16,1.43.56,2.22.74,1.48,6.22,7.4,7.7,8.77,2.45,2.28,5.63,3.78,7.83,6.39h1.84c.41-.39.69-.92.81-1.47.37-1.73.79-8.21.36-9.78-.63-2.31-5.76-.58-7.92-2.38-1.05-.87-2.68-5.61-2.44-6.95.19-1.06,3.92-3.48,5.05-4.14,7.82-4.47,26.14-12.45,34.72-14.3,4.8-1.04,3.15,3.03,3.58,6.29-1.71,1.01-1.57,3.27-3,4.35-2.62,1.97-9.26,3.71-12.67,5.65-1.29.74-4.32,2.57-4.85,3.86-.49,3.97-.43,7.97-.86,11.95-.24,2.25-1.19,4.6-1.33,6.9-.33,5.39,1.19,11.77.43,17.37s-6.42,6.17-10.46,3.2c-6.48-4.77-25.44-22.25-29.59-28.58-.84-1.28-2.69-5.12-2.45-6.5.66-3.78,5.54-13.43,7.53-17.22,2.26-4.3,13.7-23.51,17.27-24.9,1.1-.43,1.88.3,3.08-.05,1.38-.41,1.96-2.47,3.65-2.11Z"/>
      <path class="st0" d="M72.17,95.54c1.39.94-.2,2.29-.48,3.63-.39,1.81-.31,3.67.37,5.41,5.48,1.95,9.15-.34,12.71-4.25,7.83-8.6,15.05-19.16,15.59-31.11.27-5.86-.04-11.52-6.84-6.37-4.2,3.18-6.1,9.99-10.12,13.69-4.16-.25-9.71,1.67-13.28-.45l16.99-22.38c.95-.61,4.38-1.61,4.88-2.22.93-1.13-.08-3.71,1.93-5.62.42-.4,6.3-3.83,6.69-3.86,1.54-.15,5.18,1.68,6.1,3.04,1.38,2.04,5.25,11.8,5.83,14.31,1.99,8.7-1.24,10.95-4.14,18.34-2.57,6.55-6.83,20.52-11.03,25.6-1.1,1.33-5.06,3.18-6.85,4.61-3.24,2.59-5.72,5.92-10.07,7.33-3.49,1.13-13.69,1.39-17.33.78-3.24-.54-6.09-4.81-6.31-7.91-.13-1.82,2.54-9.84,3.54-11.53.25-.42.86-1.04,1.29-1.04h10.54Z"/>
      <path class="st0" d="M185.05,36.13c1.08-.28,2.84.96,3.52,1.79,2.9,3.55,2.32,16.13,3.07,21.18.67,4.5,2.62,8.8,3.15,13.33.4,3.45.61,13.02-.35,16.11-1.45,4.66-9.26,13.47-14.52,13.41-6.6-.07-15.72-6.97-18.14-13.04-.88-2.21-3.05-9.29-2.06-11.23.38-.75,7.5-3.77,8.22-3.61,1.4,1.99,1.84,4.38,3.11,6.51,3.55,5.93,12.81,10.88,12.78.09s-3.21-18.45-4.97-28.49c-.71-4.07-.26-8.2-1.05-12.24.96-2.42,3.64-2.14,5.54-2.72.63-.19,1.13-.94,1.7-1.09Z"/>
      <path class="st0" d="M97.59,63.98c.94,5.57-.57,13.54-3.01,18.69-1.64,3.46-11.89,17.12-14.89,19-7.36,4.6-6.2-5.2-2.28-6.39,2.76-.84,5.35.62,6.81-3.27.56-1.51,1.35-7.11.92-8.51-.38-1.25-2.1-1.36-1.03-3.96,3.3-2.62,8.59-14.51,12.01-15.46.49-.14.98-.19,1.47-.09Z"/>
      <path class="st0" d="M166.72,44.84c.79,1.52-.61,2.73-.79,3.82-.35,2.09.23,8.4-.9,9.98l-9.22,3.3c-1.65-1.05-1.96-9.44-1.82-11.47.24-3.43.52-4.72,3.23-6.84,4.73-3.69,5.27-1.78,9.49,1.21Z"/>
      <path class="st0" d="M137.47,93.24c-1.22.83-6.56-3.81-6.86-5.47,4.03,1.61,9.21-.94,6.86,5.47Z"/>
      <path class="st0" d="M127.88,85.91c-1.59-2.64-4.47-3.63-2.76-7.31.25-.17,1.22.28,1.54.51.79.59,3.96,7.12,1.22,6.79Z"/>
      <path class="st0" d="M473.89,99.24c-.24,2.4,1.32,10.96-2.4,10.82-2.01-.08-7.88-2.96-10.55-3.61-5.68-1.4-13.91-2.52-19.79-3.13-6.58-.68-14.09-.2-20.52-1.48-1.43-.29-7.8-3.73-8.36-4.94s.98-4.27,2.06-4.79c1.89-.92,8.63.92,11.24,1.14,11.51.96,29.56.04,40.14,2.95,2.53.7,4.98,3.26,8.17,3.05Z"/>
      <path class="st0" d="M204.08,105.93c-2.03-1.69-2.47-5.55-1.07-7.78.17-.27,3.06-2.52,3.47-2.6,8.21-1.51,18.62-.6,27.06-.9,6.66-.24,13.38-2.17,19.94-.27,2.97,7.99.21,10.16-7.59,10.77-9.94.77-21.59,1.15-31.6,1.4-1.98.05-9.05.35-10.2-.61Z"/>
      <path d="M345.39,51.62c3.86,1.53,4.84,7.9-.04,9.14-3.04.03-.94-8.92.04-9.14Z"/>
      <path d="M41.59,67.26c5.67-.67.98,3.76-1.32,5.11s-9.1,4.49-8.2-.84c.35-2.09,7.55-4.04,9.53-4.27Z"/>
    </g>
  </g>
  <g id="Layer_2">
    <g>
      <path d="M339.63,26.44c2.55.75,4.73-1.05,7.12-1.67.3.03,1.59,1.31,1.84,1.66,2.53,3.4,5.83,11.69,7.87,15.94.74,1.54,3.27,8.17,4.08,8.76.35.26.81.43,1.25.38l10.81-4.27,1.17-1.12c.48-6.07.05-13.12,2.1-18.95,1-2.84,8.09-4.75,10.96-5.11,4.85-.61,3,4.33,3.2,7.84.06,1.09.48,2.1.5,3.17.04,3.04-1.14,12.07.24,13.94.57.77,1.95.82,2.06,2.11.12,1.46-1.67,2.54-2.21,3.75-1.27,2.82-.54,16.25-.13,20.05.07.69.05,1.14.71,1.57,1.82-.01,14.38-15.88,16.5-18.3,4.39-5.03,9.11-9.87,13.44-14.93,3.24-3.78,7.01-10.09,10.66-13.17,3.16-2.66,4.23-.12,6.22.08,1.1.11,2.72-1.24,4.42-.81,1.37,2,3.59,5.52,3.39,7.96-.1,1.21-2.03,2.93-.78,3.73,1.17.74,7.49.88,9.3,1.24,5.39,1.08,10.78,4.07,16.29,5.25,4.7,1,15.03,1.22,18.61,2.93,3.03,1.45,1.59,2.38,1.85,4.55.18,1.49,1.15,1.98.51,4.11-.13.43-4.32,7.41-4.63,7.74-1.45,1.58-6.06.69-8.17.42-14.01-1.79-26.18-8.36-39.61-10.79-2.45-.44-5.36-1.52-6.96,1.01,0,1.06,6.22,2.19,7.43,2.64,10.56,3.93,22.34,11.77,33.05,16.43,5.02,2.19,10.33,3.64,15.42,5.66,1.83,1.86.82,3.96.89,5.93.1,3,1.67,4.84-1.63,7.02-.85.56-5.46,2.81-6.29,2.79-2.55-.06-10.82-4.11-14.14-5.13-4.58-1.41-7.14-1.39-11.83-3.75-7.44-3.75-14.71-8.04-22.29-11.61-2.12-1-9.53-3.19-10.14-4.98-.22-.67-.34-3.56-.59-3.76-.63-.11-1.22-.06-1.8.22-1.34.64-6.09,7.32-7.57,8.92-6.24,6.73-15.11,13.99-20.4,21.27-1.94,2.67-2.66,9.02-5.83,9.74-2.75.62-5.53-1.74-4.5,2.39,2.11,8.42,8.76,18.59,9.42,27.22.07.96.03,1.57-.27,2.49-.11.35-3.52,5.81-3.86,6.21-1.32,1.57-6.82.72-8.59-.14-4.39-2.13-6.19-12.01-7.91-16.36-3.09-7.84-6.83-15.65-9.86-23.56-3.31-8.63-5.58-17.96-9.32-26.39-.98-2.22-2.39-6.56-5.31-4.66-1.83,1.19-.98,3.87-1.2,5.67-.57,4.77-1.67,16.53-3.48,20.32-.41.86-4.28,4.91-5.21,5.78-4.57,4.29-7.86-1.39-9.16-5.54l2.2-21.86c-1.01-2.05-4.44-.51-5.48-1.86l-2.24-8.97c-.1,2.83-2.3,5.44-3.1,8.12-.84,2.82-1.21,11.05-3.64,12.49-1.62.96-4.87,1.56-6.75,1.3-3.76-.5-4.88-4.44-8.93-4.04-1.36,6.51.08,13.37,1.33,19.83-.18,1.77-1.77,2.3-2.48,3.51-.95,1.63-1.76,6.09-3.78,6.27-1.8.1-2.34-2-3.24-2.66-1.33-.98-3.24-.69-4.73-2.02-1.28-1.15-2.51-4.15-3.87-5.75-3.49-4.1-9.08-7.66-13.06-11.67-4.84-4.88-7.89-11.07-12.84-15.56-.54-.49-3.75-3.26-4-3.33-2.12-.63-7.04.05-9.31.59-8.63,2.03-17.96,6.49-26.59,9.15-2.66.82-9.12,3.05-11.43,3.24-3.55.29-3.44-3.25-4.37-5.75-.39-1.06-1.4-1.71-1.59-3.01-.29-1.97.42-4.06,2.04-5.23,7.61-5.49,22.99-6.68,32.32-9.83.68-.23,4.1-1.43,4.29-1.56,2.13-1.51-1.39-3.38-2.18-4.21-1.18-1.25-1.29-2.93-3.32-2.99-7.36-.21-15.49,1.34-22.84,1.68-3.27.15-10.72.95-11.61-3.09-.16-.73-.63-6.5-.55-7.18.37-3.11,6.11-5.5,8.94-5.76,4.56-.41,6.95-.48,11.56-1.27,11.49-1.97,23.14-5,34.85-3.92l.59.46c.25,1.71,1.71,3.29,1.83,4.96.19,2.6-2.2,4.85-1.17,7.08l27.26,27.46c-.04-1.12.12-2.28-.03-3.39-1.39-9.89-11.23-13.33-13.92-21.34-1.12-3.33.79-2.84,1.91-4.22.59-.73.33-1.91,1.31-2.59,1.08-.74,2.46-.28,3.53-.6,2.19-.65,4.67-2.05,7-2.62l2.04-9.86c2.97-.1,12.03-4.48,14-1.15.25.43,1.09,8.6,1.15,9.83.31,6.1-.57,12.14-.38,18.22.19.83,4.71,4.86,5.61,5.38.68.39,1.49.65,2.26.46.56-.14,4.22-9.17,4.73-10.47,1.35-3.44,2.22-7.16,3.6-10.6,5.32-13.32,11.41-26.33,17.4-39.36,4.34-2.5,4.36,2.87,5.26,3.46,1.25.81,4.95-.55,6.03,1.76.64,1.37.6,7.89.37,9.62-.39,2.85-3.06,5.98-3.63,8.96ZM334.13,6.77c-.91,0-1.7.48-2.23,1.2-.99,1.36-3.52,6.97-4.4,8.87-7.11,15.37-12.06,32.03-19.25,47.13-.79,1.66-.57,4.77-3.61,3.14-1.84-.99-4.77-3.97-6.48-5.43-.97-.83-2.3-.8-2.78-2.26-.85-3.73.53-7.59.71-11.24.13-2.55-.04-16.24-1.81-17.4-1.18-.77-8.46,1.18-9.22,2.26-1.15,1.9-.89,10.22-2.25,11.02-1.46.86-3.51-.46-5.16-.15-.6.11-5.31,2.32-5.61,2.67s-1.44,2.62-1.44,2.96c0,2.35,8.95,10.72,10.82,13.28,3.32,4.54,2.16,12.39,3.11,17.78-.41,1.05-1.64,1.6-2.64.97-2.82-3.56-5.47-7.35-8.47-10.77-4.66-5.29-10.9-11.61-16.04-16.48-1.71-1.62-7.82-7.03-9.6-7.8-3.45-1.48-13.65,3.13-9.89,8.5,1.85,2.63,6.89,6.87,9.42,9.36,4.35,4.3,9.53,8.34,13.68,12.88s6.88,10.11,11.49,14.61c3.84,3.75,8.72,6.58,12.18,10.72,1.11,1.33,2.89,4.83,3.67,5.49,1.61,1.37,4.76.31,5.72,2.98l3.88-6.19c-1.43-6.71-2.47-14.18-1.84-21.05.54-5.81,3.42-2.18,5.66-1.03,1.35.7,2.83,1.04,4.15,1.81,1.84,1.07,1.6,2.7,4.62,2.19.46-.08,3.23-1.26,3.5-1.55.63-.67,2.29-10.04,2.94-12.17,3.34-10.92,9.37-20.93,14.21-31.11,1.81-3.79,2.56-8.15,4.01-12.01,2.1-5.55,6-11.53,5.87-17.48-.12-5.56-6.17-.88-6.9-5.74ZM378.72,27.48c-.41.41-1.25,2.73-1.39,3.41-.42,2-1.29,10.92-.82,12.5.15.5.86,1.58,1.38,1.64.44.05,8.27-1.97,8.65-2.2,1.75-1.01,1.36-9.35,1.24-11.61-.05-.92-.51-5.92-.68-6.18-.81-1.18-7.42,1.47-8.38,2.43ZM379.18,142.08c.61.51,3.38,1.1,4.24,1.09,2.93-.04,5.4-4.42,5.26-7.12-.29-5.87-7.47-20.86-9.85-27.25-3.27-8.79-6.97-17.66-10.17-26.45-1.13-3.1-.43-5.3-3.72-7.73.39-2.68-2.64-7.32-1.05-9.55.61-.85,11.51-3.77,13.69-4.63s8.06-3.3,9.2-5c.31-.46,2.21-5.36,2.12-5.71-.05-.2-1.68-3.48-1.82-3.62-.66-.68-1.44-.46-2.24-.4-6.27.46-15.21,5.72-21.61,7.74-1.22.39-2.79,1.21-4.04.84s-4.14-8.41-4.97-10.16c-2.4-5.02-4.97-9.99-7.46-14.97-1.95-2.2-5,.93-7.49.79l-1.36,2.79-3.53,28.51c-.74,2.46-3.77,1.81-4.84,2.94-.68.72-.41,2.12-1.15,2.97s-1.97.69-2.52,1.14c-1.12.92-.07,4.66.42,6,1.29,1.63,5.47-.71,6,2.27-.39,3.63-.58,7.28-.96,10.91-.34,3.18-2.01,9.24-1.22,12.29.06.22,1.78,3.85,1.94,4.01,2.02,2.07,3.75-1.41,4.81-2.55,2.52-2.71,2.73-2.26,3.64-6.44l2.77-21.49c1.08-2.65,4.55-1.85,6.69-3.4.4-.04.64.2.93.42.7.53,4.6,10.87,5.26,12.6,4.75,12.56,9,25.42,13.87,37.86,2.04,5.21,3.95,10.75,6.06,15.91.4.99,2.47,4.86,3.09,5.37ZM441.32,30.64c-1.39-.57-3.07.45-4.26.37-1.33-.09-2.88-1.96-4.41-.25-5.96,7.75-12.62,14.83-19,22.22-7.09,8.22-13.68,17.2-21.52,24.74-2.11,2.02-3.27,2.76-3.89-.73-1.01-5.72.14-11.77-.91-17.4-1.05-1.46-2.91.57-4.06,1.05-1.61.66-5.78,1.81-6.54,3.08-1.02,1.7-.01,2.62.02,4.15.15,6.31.67,12.47.94,18.73.21,5.07-.93,7.78,1.03,13.16,1.06,2.9,2.28,4.24,5.6,4.5,3.61.29,3.29-4.1,4.72-6.75,3.4-6.28,17.22-18.21,22.79-24.38,2.09-2.32,6.76-7.01,8.26-9.14.9-1.27.88-2.65,1.78-3.71,1.02-1.19,4-1.99,5.53-3.17,1.13-.88,6.02-6.46,6.19-7.59.39-2.58-1.69-3.7.99-6.75,1.88-2.15,3.98-1.9,5.68-3.02.51-.34,2.29-2.8,2.54-3.43.96-2.47-.73-3.52-1.49-5.66ZM234.1,51.5c.64-.54.33-2.44.99-3.36.16-.23,4.21-3.23,4.48-3.3.52-.15,7.31-1.41,7.7-1.41,1.3,0,2.88,1.53,4.36.64,1.56-.94,1.09-6.2-1.16-6.63-1.87-.36-8.4-.2-10.48.04-8.86,1-18.79,4.47-27.6,5.39-3.61.38-11.73-1.22-12.08,4.45-.07,1.08.46,5.13,1.16,5.63,2.29,1.63,21.6-.49,25.64-.88,1.62-.16,5.89.36,6.99-.57ZM440.35,42.11c-1.24.23-4,1.7-4.38,2.97l.43,5.79c.29.92,3.97,1.07,5.07,1.34,9.4,2.34,18.28,6,27.39,8.35,2.65.68,14.29,3.24,16.06,2.26.44-.24,3.81-5.45,3.95-6.15.26-1.22-.37-5.37-1.52-5.88-4.78-1.18-10.2-1.15-14.93-2.02-10.34-1.92-21.11-8.67-32.08-6.65ZM333.67,45.2l-1.76.08c-.59,1.87-2.07,3.4-2.91,5.1-1.81,3.68-4.8,10.73-6.03,14.58-.23.73-.39,1.44-.31,2.2,1.9,0,.96-1.96,2.04-3.22,1.37-1.59,4.85-2.01,6.37-3.25,2.46-2,1.63-12.08,2.58-15.49ZM486.71,90.9c-.37-3.46,1.65-7.3-2.12-8.97-4.41-1.95-9.77-3.23-14.43-5.28-10.08-4.42-21.25-11.78-31.15-15.57-2.77-1.06-6.37-2.07-9.32-1.71-.63.08-5.14,1.9-5.3,2.14-.82,1.25-.11,5.01.46,6.37.96,2.29,9.13,4.79,11.8,6.07,7.23,3.48,14.49,8.03,21.6,11.38,4.29,2.02,7.96,2.09,12.22,3.36,3.2.96,8.96,4.66,11.82,3.97,1.15-.28,2.95-1.65,4.41-1.77ZM248.87,69.92c-3.26-1.05-5.3-6.73-8.88-6.39s-9.97,3.79-13.92,4.43c-5.52,1.52-13.1,2.55-18.25,4.66-.46.19-5.04,2.78-5.24,3.01-1.33,1.44,2.16,6.16,1.9,8.41,1.2.75,11.13-2.34,13.15-2.99,8.17-2.66,16.18-6.06,24.47-8.52.87-.26,7.88-1.05,6.78-2.6ZM373.5,64.93c-5.97.33-8.57.97-6.14,7.28.47,1.22,1.66,1.89,2.31,3.19,1.73,3.47,1.44,9.46,5.26,11.44l-1.43-21.91Z"/>
      <path d="M196.42,66.68c-.58-2.69-2.12-5.69-2.51-8.48-.79-5.64.12-18.57-3.7-22.85-1.04-1.16-3.13-2.28-4.71-1.97-.92.19-6.13,2.11-7.07,2.58-1.69.86-2.65,1.56-2.87,3.57.78,3.86.03,8.03.48,11.79.89,7.5,4.49,15.05,4.99,23.39.1,1.73.6,8.98-1.21,9.31-2.41.44-10.14-8.17-8.18-11.37.31-.51,1.58-.83,2.08-1.58.91-1.37.83-1.95,2.19-3.74,2.03-2.67.49-3.43.12-5.93-.38-2.54,1.14-4.97-2.62-5.2-1.36-.08-2.74.58-4.09.71l-.91-.74c.46-3.43-.75-7.41,1.89-10.05.87-2.51-7.1-8.09-8.81-8.25-2.12-.2-3.03,2.01-4.55,3.19-1.48,1.15-3.98,2.11-4.57,3.67-1.06,2.76-.8,8.57-.68,11.67.07,1.66,1.46,5.73.34,6.99-5.68,2.64-11.61,4.9-17.15,7.81-.81.43-2.03,1.33-3.1,2.1-1.09.99-2.51,1.68-3.3,2.94-1.12,1.8-.79,4.38-.03,6.25,0,.01,0,.03,0,.04.03.08.06.15.08.23.75,1.29,1.15,2.84,2.21,3.93.73.75,1.66,1.25,2.63,1.67,3.19.31,5.9-.1,4.08,4.88-.9.61-3.99-1.72-5.71-3.66-.46-.33-.9-.69-1.32-1.07-.37-.26-.74-.54-1.09-.82-.09-.07-.17-.14-.25-.21-1.02-.83-1.97-1.75-2.8-2.79-.18-.23-.35-.47-.51-.72-1.17-1.29-1.74-3.02-1.11-4.81.17-.48.4-.93.66-1.35.3-.83.76-1.62,1.33-2.36.65-.85,1.31-1.69,1.95-2.55.54-.73,1.1-1.44,1.77-2.05,1.7-3.15,4.78-7.49,5.81-9.32,1.19-2.11,7.44-13.08,7.63-14.38.29-2-.78-8.06-1.81-9.88-2.59-4.6-4.45.6-5.3,1.11-.92.55-2.36.31-3.62.85-.89.38-4.47,3.62-5.23,4.52l-11.24,17.47c-.68.32-1.49-1.93-1.69-2.43-1.59-4.06-4.42-13.65-6.93-16.65-.91-1.09-5.16-2.86-6.51-2.84-1.55.03-9.38,4.7-10.31,6.13-.87,1.33-.96,3.66-1.84,4.57-1.25,1.29-4.36,2.28-6.64,4.81-5.56,6.15-10.26,14.64-15.34,21.29-1.95,1.8-6.53,1.34-8.71,0,.03-.96,9.48-6.64,10.33-9.35.99-3.16-1.18-7-2.2-9.98l-35.33-2.02c-1.45-.55-4.78-10.48-5.41-12.44-1.62-2.78-6.62-1.9-8.68-.08-.57.51-4.23,4.41-4.36,4.8-.71,2.32.46,5.05-.77,7.24-4.1.58-6.02,3.75-9.54,5.44,0,1.58-.12,3.1.33,4.65.14.48,3.06,5.62,3.32,5.84,2.3,1.99,7.71.47,10.69,1.68,2.43.99,3.72,7.32,3.02,9.63-.35,1.13-6.02,4.31-6.7,6.6-.76,2.54,1.84,2.88,2.43,4.25.54,1.26-.12,3.14,1.62,3.87.64.27,3.48.64,4.37.71.8.06,1.67-.47,2.22-.38.73.13,3.05,4.99,3.5,6.06,2.29,5.37,3.68,11.85,6.32,17.03.83,1.63,2.65,4.68,4.53,5.09.68.15,6.99.07,7.46-.15,1.28-.58,3.49-5.94,3.64-7.36.45-4.22-7.37-21.62-6.39-22.6,2.26.12,12.68-.2,14,.91,1.61,1.36-2.49,8.49-2.89,10.4-.63,2.95,2.21,9.94,4.71,11.57,3.43,2.25,17.25,1.52,21.42.33,5.18-1.48,8.95-5.83,13.04-8.94,1.5-1.14,4.27-2.17,5.43-3.27,2.13-2.01,5.35-10.89,7.16-13.9.29-.49,1.7-2.14,2.22-1.67-.03.86.25,1.56.71,2.27,1.9,2.94,9.07,10.07,11.89,12.84,4.29,4.23,9.24,8.01,13.76,11.88,2.38,2.03,5,6.03,8.24,6.42,15.55,1.88,10.27-15.79,10.79-24.94.21-3.74,1.44-7.78,1.82-11.45.11-1.07-.44-7.09.7-7.08,2.82,5.02,2.6,11.39,6.45,15.97.93,1.1,8.08,6.43,9.41,7.08,7.32,3.59,13.44.95,18.56-4.48,9.31-9.86,8.69-19.15,5.94-31.88ZM154,50.47c.24-3.43.52-4.72,3.23-6.84,4.73-3.69,5.27-1.78,9.49,1.21.79,1.52-.61,2.73-.79,3.82-.35,2.09.23,8.4-.9,9.98l-9.22,3.3c-1.65-1.05-1.96-9.44-1.82-11.47ZM40.31,92.1c-.55.33-.96,1.51-.84,2.19l7.05,19.53c.79,2.87-.36,5.54-1.61,8.05-.56.38-4.85.35-5.65.12-3.49-1.01-7.32-15.49-8.81-19.12-.45-1.1-3.76-8.38-4.12-8.7-1.55-1.36-5.04.64-7.05-.06-.47-2.57-.88-4.19-2.73-6.12,0-1.09,4.89-3.83,5.67-4.77,2.5-2.99-1.14-10.06-2.05-13.45-.83-1.37-10-.71-12.15-2.17-.88-.59-2.85-4.79-2.46-6.05.13-.43,3.16-3.53,3.6-3.74,1.22-.59,4.68-.78,5.53-1.8,1.14-1.62-.04-3.53-.04-5.08,0-3.34,1.86-3.44,3.67-5.49.79-.89.51-1.96,1.58-2.09,1.29-.17,3.39-.22,4.14.95.73,2.16,4.29,12.61,6.04,13.19l34.69,1.97.67.7c-.29,2.02,2.01,4.39,1.24,6.08-.32.7-7.31,6.17-8.53,7.07-1.04.76-8.91,4.97-7.75,6.21l29.5.53.69.69c-.7,2.16,1.19,3.3,1.43,4.52.53,2.67.42,7.12-2.95,7.57-5.38.71-15.8.19-21.59,0-3.23-.11-14.95-2.04-17.17-.71ZM85.14,83.5c-.38-1.25-2.1-1.36-1.03-3.96,3.3-2.62,8.59-14.51,12.01-15.46.49-.14.98-.19,1.47-.09.94,5.57-.57,13.54-3.01,18.69-1.64,3.46-11.89,17.12-14.89,19-7.36,4.6-6.2-5.2-2.28-6.39,2.76-.84,5.35.62,6.81-3.27.56-1.51,1.35-7.11.92-8.51ZM97.37,103.3c-1.1,1.33-5.06,3.18-6.85,4.61-3.24,2.59-5.72,5.92-10.07,7.33-3.49,1.13-13.69,1.39-17.33.78-3.24-.54-6.09-4.81-6.31-7.91-.13-1.82,2.54-9.84,3.54-11.53.25-.42.86-1.04,1.29-1.04h10.54c1.39.94-.2,2.29-.48,3.63-.39,1.81-.31,3.67.37,5.41,5.48,1.95,9.15-.34,12.71-4.25,7.83-8.6,15.05-19.16,15.59-31.11.27-5.86-.04-11.52-6.84-6.37-4.2,3.18-6.1,9.99-10.12,13.69-4.16-.25-9.71,1.67-13.28-.45l16.99-22.38c.95-.61,4.38-1.61,4.88-2.22.93-1.13-.08-3.71,1.93-5.62.42-.4,6.3-3.83,6.69-3.86,1.54-.15,5.18,1.68,6.1,3.04,1.38,2.05,5.25,11.8,5.83,14.31,1.99,8.7-1.24,10.95-4.14,18.34-2.57,6.55-6.83,20.52-11.03,25.6ZM152.96,79.64c-.49,3.97-.43,7.97-.86,11.95-.24,2.25-1.19,4.6-1.33,6.9-.33,5.39,1.19,11.77.43,17.37-.78,5.69-6.42,6.17-10.46,3.2-6.48-4.77-25.44-22.25-29.59-28.58-.84-1.28-2.69-5.12-2.45-6.5.66-3.78,5.54-13.43,7.53-17.22,2.26-4.3,13.7-23.51,17.27-24.9,1.1-.43,1.88.3,3.08-.05,1.38-.41,1.96-2.47,3.65-2.11.28.19.93,5.85.93,6.64,0,2.31-10.88,20.34-12.93,23.7-1.46,2.4-6.72,8.87-6.82,11.08-.04.92.16,1.43.56,2.22.74,1.48,6.22,7.4,7.7,8.77,2.45,2.28,5.63,3.78,7.83,6.39h1.84c.41-.39.69-.92.81-1.47.37-1.73.79-8.21.36-9.78-.63-2.31-5.76-.58-7.92-2.38-1.05-.87-2.68-5.61-2.44-6.95.19-1.06,3.92-3.48,5.05-4.14,7.82-4.47,26.14-12.45,34.72-14.3,4.8-1.04,3.15,3.03,3.58,6.29-1.71,1.01-1.57,3.27-3,4.35-2.62,1.97-9.26,3.71-12.67,5.65-1.29.74-4.32,2.57-4.85,3.86ZM194.43,88.54c-1.45,4.66-9.26,13.47-14.52,13.41-6.6-.07-15.72-6.97-18.14-13.04-.88-2.21-3.05-9.29-2.06-11.23.38-.75,7.5-3.77,8.22-3.61,1.4,1.99,1.84,4.38,3.11,6.51,3.55,5.93,12.81,10.88,12.78.09-.03-10.86-3.21-18.45-4.97-28.49-.71-4.07-.26-8.2-1.05-12.24.96-2.42,3.64-2.14,5.54-2.72.63-.19,1.13-.94,1.7-1.09,1.08-.28,2.84.96,3.52,1.79,2.9,3.55,2.32,16.13,3.07,21.18.67,4.5,2.62,8.8,3.15,13.33.4,3.45.61,13.02-.35,16.11Z"/>
      <path d="M415.56,88.81c4.4.8,9.25,1.78,13.69,2.14,5.72.47,12.12.06,17.87.47,8.34.59,16.49,1.27,24.07,4.34,1.4.57,4.57.61,5.27,2.06,1.2,2.5.18,11.09-1.23,13.41-1.49,2.44-5.57,1.29-7.81.65-3.96-1.12-7.87-3.14-12.08-3.96-11.3-2.2-23.34-1.62-34.29-3.29-2.99-.46-12.06-4.32-12.58-7.6-.23-1.45,4.65-8.45,7.1-8.22ZM473.89,99.24c-3.19.21-5.64-2.36-8.17-3.05-10.58-2.91-28.63-1.99-40.14-2.95-2.61-.22-9.35-2.06-11.24-1.14-1.08.53-2.63,3.57-2.06,4.79s6.92,4.66,8.36,4.94c6.43,1.28,13.94.81,20.52,1.48,5.88.6,14.11,1.72,19.79,3.13,2.67.66,8.53,3.54,10.55,3.61,3.71.14,2.16-8.42,2.4-10.82Z"/>
      <path d="M243.74,91.09c3.39-.09,7.53-.3,10.86.33,3.09.58,1.55,6.15,2.86,8.38-.05,1.15-2.06,4.9-2.87,5.77-2.84,3.03-20.97,2.05-25.67,2.29-7.43.38-16.48,2.22-23.82,1.39-8.57-.96-6.18-14.92.2-16.27,2.12-.45,6.96-.58,9.4-.68,9.67-.38,19.4-.96,29.03-1.22ZM204.08,105.93c1.15.96,8.23.66,10.2.61,10.02-.25,21.66-.63,31.6-1.4,7.8-.61,10.56-2.77,7.59-10.77-6.56-1.9-13.29.03-19.94.27-8.44.3-18.84-.6-27.06.9-.41.08-3.3,2.33-3.47,2.6-1.4,2.23-.96,6.1,1.07,7.78Z"/>
      <path d="M345.39,51.62c3.86,1.53,4.84,7.9-.04,9.14-3.04.03-.94-8.92.04-9.14Z"/>
      <path d="M41.59,67.26c5.67-.67.98,3.76-1.32,5.11s-9.1,4.49-8.2-.84c.35-2.09,7.55-4.04,9.53-4.27Z"/>
    </g>
  </g>
</svg>